HIERARCHY
ROOT Hips
{
	OFFSET	0.00	0.00	0.00
	CHANNELS 6 Xposition Yposition Zposition Zrotation Xrotation Yrotation
	JOINT LeftUpLeg
	{
		OFFSET	 0.126116	-0.014019	-0.065224
		CHANNELS 3 Zrotation Xrotation Yrotation
		JOINT LeftLeg
		{
			OFFSET	 0.000000	 0.000000	 0.569914
			CHANNELS 3 Zrotation Xrotation Yrotation
			JOINT LeftFoot
			{
				OFFSET	 0.000000	 0.000000	 0.544423
				CHANNELS 3 Zrotation Xrotation Yrotation
				JOINT LeftToeBase
				{
					OFFSET	 0.000000	 0.000000	 0.207117
					CHANNELS 3 Zrotation Xrotation Yrotation
					End Site
					{
						OFFSET	 0.000000	 0.000000	 0.207117
					}
				}
			}
		}
	}
	JOINT RightUpLeg
	{
		OFFSET	-0.124023	-0.008373	-0.065224
		CHANNELS 3 Zrotation Xrotation Yrotation
		JOINT RightLeg
		{
			OFFSET	 0.000000	 0.000000	 0.570047
			CHANNELS 3 Zrotation Xrotation Yrotation
			JOINT RightFoot
			{
				OFFSET	 0.000000	 0.000000	 0.544354
				CHANNELS 3 Zrotation Xrotation Yrotation
				JOINT RightToeBase
				{
					OFFSET	 0.000000	 0.000000	 0.207540
					CHANNELS 3 Zrotation Xrotation Yrotation
					End Site
					{
						OFFSET	 0.000000	 0.000000	 0.207540
					}
				}
			}
		}
	}
	JOINT Spine
	{
		OFFSET	 0.000184	-0.007763	 0.117403
		CHANNELS 3 Zrotation Xrotation Yrotation
		JOINT Spine1
		{
			OFFSET	 0.000000	 0.000000	 0.137269
			CHANNELS 3 Zrotation Xrotation Yrotation
			JOINT Spine2
			{
				OFFSET	 0.000000	 0.000000	 0.156879
				CHANNELS 3 Zrotation Xrotation Yrotation
				JOINT LeftShoulder
				{
					OFFSET	 0.080501	-0.002496	 0.160144
					CHANNELS 3 Zrotation Xrotation Yrotation
					JOINT LeftArm
					{
						OFFSET	 0.000000	 0.000000	 0.164363
						CHANNELS 3 Zrotation Xrotation Yrotation
						JOINT LeftForeArm
						{
							OFFSET	 0.000000	 0.000000	 0.364576
							CHANNELS 3 Zrotation Xrotation Yrotation
							JOINT LeftHand
							{
								OFFSET	 0.000000	 0.000000	 0.360812
								CHANNELS 3 Zrotation Xrotation Yrotation
								JOINT LeftHandIndex1
								{
									OFFSET	 0.000000	 0.000000	 0.086006
									CHANNELS 3 Zrotation Xrotation Yrotation
									JOINT LeftHandIndex2
									{
										OFFSET	 0.000000	 0.000000	 0.047236
										CHANNELS 3 Zrotation Xrotation Yrotation
										JOINT LeftHandIndex3
										{
											OFFSET	-0.004284	-0.000551	 0.038166
											CHANNELS 3 Zrotation Xrotation Yrotation
											End Site
											{
												OFFSET	-0.004284	-0.000551	 0.038166
											}
										}
									}
								}
							}
						}
					}
				}
				JOINT Neck
				{
					OFFSET	 0.000000	 0.000000	 0.176489
					CHANNELS 3 Zrotation Xrotation Yrotation
					JOINT Head
					{
						OFFSET	 0.000000	-0.001747	 0.077940
						CHANNELS 3 Zrotation Xrotation Yrotation
						End Site
						{
							OFFSET	 0.000000	-0.001747	 0.077940
						}
					}
				}
				JOINT RightShoulder
				{
					OFFSET	-0.080363	 0.000306	 0.159706
					CHANNELS 3 Zrotation Xrotation Yrotation
					JOINT RightArm
					{
						OFFSET	 0.000000	 0.000000	 0.164196
						CHANNELS 3 Zrotation Xrotation Yrotation
						JOINT RightForeArm
						{
							OFFSET	 0.000000	 0.000000	 0.365611
							CHANNELS 3 Zrotation Xrotation Yrotation
							JOINT RightHand
							{
								OFFSET	 0.000000	 0.000000	 0.360648
								CHANNELS 3 Zrotation Xrotation Yrotation
								JOINT RightHandIndex1
								{
									OFFSET	 0.000000	 0.000000	 0.069977
									CHANNELS 3 Zrotation Xrotation Yrotation
									JOINT RightHandIndex2
									{
										OFFSET	 0.000000	 0.000000	 0.052305
										CHANNELS 3 Zrotation Xrotation Yrotation
										JOINT RightHandIndex3
										{
											OFFSET	 0.009002	-0.000782	 0.042196
											CHANNELS 3 Zrotation Xrotation Yrotation
											End Site
											{
												OFFSET	 0.009002	-0.000782	 0.042196
											}
										}
									}
								}
							}
						}
					}
				}
			}
		}
	}
}
MOTION
Frames:    9
Frame Time: 0.03333334
-0.035052	 0.263295	 1.023371	 1.286853	 33.934120	-7.108638	 37.716540	-81.462520	-146.510100	 6.559770	-71.063950	 6.602186	 36.458910	 82.102930	-40.545810	-2.385833	 28.452760	 0.000004	 68.530170	-80.912520	-113.525100	-16.990500	-74.083260	-11.402250	 8.104271	 81.407670	 7.673424	 2.384659	 28.388700	-0.000001	-4.983265	 14.594160	 1.762495	-2.812424	 19.789570	 3.780006	 0.556980	 0.470704	 1.960906	-99.218640	 68.208810	 156.608100	 7.410521	-6.867285	-52.647780	-25.217390	 2.693237	-8.363507	-31.855210	-19.612140	-20.804190	-2.027600	 6.559038	 9.033609	-5.188889	 0.308190	 3.541030	-5.234859	 0.342567	 0.430617	 0.548097	 18.591060	-6.489578	 2.702731	-27.656990	 0.739567	 97.502400	 64.667710	-159.049600	-4.438096	 4.646077	 49.404690	 6.362397	 10.831250	 37.362230	 16.034420	-19.054520	 16.066910	 1.803333	 3.979147	-15.098590	 4.898592	 3.004813	-9.310344	 5.224449	 0.395017	 2.014677
-0.033648	 0.263091	 1.032010	 0.991550	 33.300050	-6.700365	 32.321290	-80.286610	-152.036300	 5.874707	-69.867600	 5.909662	 34.475400	 81.838970	-38.464680	-2.385832	 28.452790	-0.000001	 58.833950	-80.524390	-123.137900	-16.255700	-72.751980	-10.621450	 7.794912	 81.022080	 7.918249	 2.384659	 28.388700	-0.000001	-4.288449	 14.422120	 1.749609	-2.809328	 19.925420	 3.834208	 1.031276	-0.053424	 1.648075	-99.096310	 68.193530	 157.006400	 7.738410	-5.667567	-53.016390	-25.087700	 2.699370	-8.374955	-31.926690	-19.631080	-20.948420	-2.027600	 6.559038	 9.033609	-5.188889	 0.308190	 3.541030	-5.234859	 0.342567	 0.430617	 0.184207	 16.663720	-5.569278	 2.878232	-25.798740	 0.371140	 97.402660	 64.606390	-159.364600	-4.977070	 4.854322	 48.815710	 6.531960	 11.250770	 38.216860	 16.002800	-19.051120	 16.679740	 1.803333	 3.979147	-15.098590	 4.898592	 3.004813	-9.310344	 5.224449	 0.395017	 2.014677
-0.032437	 0.262873	 1.039739	 0.815919	 32.737260	-6.399388	 28.437050	-79.173710	-155.956200	 5.429177	-68.747870	 5.450660	 32.516750	 81.533620	-36.483080	-2.385832	 28.452790	-0.000001	 51.002190	-79.959590	-130.827400	-15.692410	-71.561690	-10.015990	 7.538090	 80.660910	 8.100964	 2.384659	 28.388700	-0.000001	-3.699399	 14.270870	 1.744303	-2.795010	 20.060500	 3.842148	 1.382571	-0.527328	 1.402182	-98.909770	 68.339020	 157.362000	 8.076571	-4.465868	-53.446560	-24.942900	 2.702205	-8.381586	-32.024280	-19.730250	-21.178890	-2.027600	 6.559038	 9.033609	-5.188889	 0.308190	 3.541030	-5.234859	 0.342567	 0.430617	-0.085841	 14.769120	-4.963854	 3.053635	-23.960690	 0.143834	 97.296770	 64.464020	-159.771600	-5.520209	 4.890710	 48.387250	 6.616282	 11.597010	 38.992690	 15.805600	-18.971250	 17.185110	 1.803333	 3.979147	-15.098590	 4.898592	 3.004813	-9.310344	 5.224449	 0.395017	 2.014677
-0.030939	 0.262489	 1.049336	 0.671518	 32.045850	-6.080786	 24.580080	-77.726180	-159.794000	 5.001699	-67.309680	 5.001104	 30.076330	 81.090530	-34.047690	-2.385832	 28.452790	-0.000001	 42.620720	-79.019500	-138.980700	-15.085660	-70.072810	-9.355121	 7.244852	 80.190070	 8.302401	 2.384659	 28.388700	-0.000001	-2.989061	 14.076790	 1.738008	-2.764920	 20.197270	 3.825943	 1.751242	-1.094198	 1.126311	-98.630730	 68.624790	 157.799900	 8.533484	-2.888603	-54.030850	-24.741920	 2.703191	-8.386235	-32.167920	-19.934190	-21.536310	-2.027600	 6.559038	 9.033609	-5.188889	 0.308190	 3.541030	-5.234859	 0.342567	 0.430617	-0.372324	 12.327540	-4.372416	 3.273899	-21.586840	-0.079818	 97.152890	 64.230740	-160.353800	-6.238916	 4.839338	 47.895540	 6.656313	 12.015290	 40.009750	 15.461420	-18.835390	 17.777020	 1.803333	 3.979147	-15.098590	 4.898592	 3.004813	-9.310344	 5.224449	 0.395017	 2.014677
-0.029349	 0.261922	 1.059082	 0.549634	 31.323570	-5.773658	 21.509970	-76.167990	-162.838600	 4.622135	-65.820870	 4.598616	 27.889090	 80.629020	-31.846380	-2.385832	 28.452790	-0.000001	 35.508330	-77.828720	-145.850800	-14.565230	-68.534660	-8.776184	 7.038559	 79.716120	 8.433823	 2.384659	 28.388700	-0.000001	-2.279797	 13.867770	 1.722420	-2.741468	 20.281810	 3.813046	 2.081884	-1.659653	 0.863908	-98.311620	 68.996510	 158.243600	 9.051819	-1.220933	-54.604440	-24.522730	 2.699652	-8.384330	-32.333030	-20.201210	-21.972580	-2.027600	 6.559038	 9.033609	-5.188889	 0.308190	 3.541030	-5.234859	 0.342567	 0.430617	-0.623431	 9.776040	-3.786467	 3.457168	-19.125380	-0.365775	 96.998790	 64.081670	-160.879600	-6.990370	 4.948303	 47.326720	 6.582318	 12.404840	 41.128860	 15.117190	-18.741320	 18.307790	 1.803333	 3.979147	-15.098590	 4.898592	 3.004813	-9.310344	 5.224449	 0.395017	 2.014677
-0.027952	 0.261275	 1.067507	 0.440070	 30.632060	-5.482767	 19.287520	-74.719960	-165.069800	 4.336694	-64.528680	 4.293044	 26.254180	 80.246700	-30.191620	-2.385832	 28.452790	-0.000001	 30.159780	-76.616060	-150.995500	-14.216750	-67.178400	-8.370891	 7.007089	 79.328430	 8.408132	 2.384659	 28.388700	-0.000001	-1.683934	 13.686050	 1.704456	-2.752611	 20.392730	 3.822191	 2.345748	-2.264398	 0.636133	-97.897920	 69.584230	 158.660200	 9.589930	 0.447226	-55.187130	-24.291310	 2.695156	-8.381186	-32.537090	-20.482000	-22.562030	-2.027600	 6.559038	 9.033609	-5.188889	 0.308190	 3.541030	-5.234859	 0.342567	 0.430617	-0.802512	 7.137735	-3.227851	 3.550632	-16.618330	-0.752272	 96.838200	 64.193440	-161.196400	-7.674619	 5.474992	 46.793660	 6.281279	 12.607920	 42.180580	 14.758370	-18.685480	 18.613350	 1.803333	 3.979147	-15.098590	 4.898592	 3.004813	-9.310344	 5.224449	 0.395017	 2.014677
-0.026169	 0.260210	 1.077430	 0.356308	 29.841980	-5.163452	 17.220310	-72.985100	-167.127700	 4.036663	-62.973540	 3.968551	 24.578910	 79.775530	-28.460950	-2.385833	 28.452760	 0.000004	 25.100010	-75.054010	-155.800500	-13.845120	-65.550740	-7.929201	 7.057115	 78.863170	 8.326040	 2.384659	 28.388700	-0.000001	-0.995693	 13.441330	 1.658888	-2.762349	 20.442150	 3.823427	 2.611030	-2.910295	 0.391491	-97.429430	 70.253150	 159.130900	 10.228960	 2.363855	-55.806100	-24.018390	 2.686685	-8.372556	-32.775700	-20.870260	-23.247900	-2.027600	 6.559038	 9.033609	-5.188889	 0.308190	 3.541030	-5.234859	 0.342567	 0.430617	-0.973476	 4.147838	-2.608151	 3.657357	-13.782990	-1.204143	 96.657650	 64.320240	-161.559500	-8.494776	 6.098650	 46.129500	 5.892269	 12.860230	 43.537430	 14.363770	-18.677830	 18.967820	 1.803333	 3.979147	-15.098590	 4.898592	 3.004813	-9.310344	 5.224449	 0.395017	 2.014677
-0.024285	 0.259212	 1.087353	 0.298653	 29.034070	-4.809654	 15.490240	-71.217590	-168.868100	 3.881264	-61.383910	 3.774446	 23.193310	 79.292170	-27.058780	-2.385833	 28.452760	 0.000004	 20.842450	-73.373090	-159.799400	-13.594010	-63.860710	-7.594390	 7.270951	 78.409270	 8.135915	 2.384659	 28.388700	-0.000001	-0.321263	 13.230050	 1.585750	-2.765831	 20.543990	 3.756735	 2.855538	-3.605940	 0.221367	-96.702220	 71.438240	 159.561700	 10.932540	 4.612183	-56.755370	-23.711620	 2.675882	-8.360778	-33.110940	-21.361030	-23.908490	-2.027600	 6.559038	 9.033609	-5.188889	 0.308190	 3.541030	-5.234859	 0.342567	 0.430617	-1.112540	 1.067128	-2.349128	 3.833090	-10.837840	-1.408007	 96.284520	 64.975770	-161.987000	-9.314155	 7.317645	 45.890510	 5.412297	 13.014280	 44.857920	 14.144560	-19.051670	 19.320630	 1.803333	 3.979147	-15.098590	 4.898592	 3.004813	-9.310344	 5.224449	 0.395017	 2.014677
-0.022380	 0.258068	 1.097353	 0.263666	 28.215760	-4.453290	 14.030990	-69.397250	-170.342800	 3.778131	-59.742460	 3.624872	 21.909440	 78.789890	-25.760860	-2.385833	 28.452760	 0.000004	 17.284670	-71.579280	-163.093000	-13.392170	-62.107720	-7.298960	 7.460147	 77.937800	 8.009815	 2.384659	 28.388700	-0.000001	 0.356388	 13.020550	 1.504302	-2.764173	 20.629220	 3.672680	 3.070765	-4.299991	 0.080263	-95.858780	 72.805660	 159.948000	 11.679390	 6.980705	-57.832520	-23.386310	 2.661907	-8.344436	-33.486520	-21.935680	-24.573370	-2.027600	 6.559038	 9.033609	-5.188889	 0.308190	 3.541030	-5.234859	 0.342567	 0.430617	-1.241194	-2.038180	-2.222296	 4.015765	-7.861559	-1.541200	 95.845860	 65.816540	-162.437500	-10.151940	 8.742558	 45.810480	 4.888556	 13.126070	 46.207600	 13.984580	-19.608220	 19.675450	 1.803333	 3.979147	-15.098590	 4.898592	 3.004813	-9.310344	 5.224449	 0.395017	 2.014677
